HIERARCHY
ROOT Pelvis
{
	OFFSET 0.000000 0.000000 0.000000
	CHANNELS 6 Xposition Yposition Zposition Xrotation Yrotation Zrotation
	JOINT LeftUpLeg_virtual
	{
		OFFSET 0.000000 0.000000 0.000000
		CHANNELS 3 Xrotation Yrotation Zrotation
		JOINT LeftUpLeg
		{
			OFFSET 18.735201 -5.666702 -4.541200
			CHANNELS 3 Xrotation Yrotation Zrotation
			JOINT LeftLeg
			{
				OFFSET -0.021200 -31.938179 0.493100
				CHANNELS 3 Xrotation Yrotation Zrotation
				JOINT LeftFoot
				{
					OFFSET 0.021200 -31.938179 -4.336299
					CHANNELS 3 Xrotation Yrotation Zrotation
					JOINT LeftToeBase
					{
						OFFSET 0.943001 -26.722000 15.023500
						CHANNELS 3 Xrotation Yrotation Zrotation
						End Site
						{
							OFFSET 0 0 0
						}
					}
				}
			}
		}
	}
	JOINT RightUpLeg_virtual
	{
		OFFSET 0.000000 0.000000 0.000000
		CHANNELS 3 Xrotation Yrotation Zrotation
		JOINT RightUpLeg
		{
			OFFSET -18.735201 -5.666702 -4.541200
			CHANNELS 3 Xrotation Yrotation Zrotation
			JOINT RightLeg
			{
				OFFSET 0.018946 -31.938133 0.493100
				CHANNELS 3 Xrotation Yrotation Zrotation
				JOINT RightFoot
				{
					OFFSET -0.018946 -31.938126 -4.336299
					CHANNELS 3 Xrotation Yrotation Zrotation
					JOINT RightToeBase
					{
						OFFSET -0.943001 -26.722004 15.023500
						CHANNELS 3 Xrotation Yrotation Zrotation
						End Site
						{
							OFFSET 0 0 0
						}
					}
				}
			}
		}
	}
	JOINT Hips_virtual
	{
		OFFSET 0.000000 0.000000 0.000000
		CHANNELS 3 Xrotation Yrotation Zrotation
		JOINT Hips
		{
			OFFSET -0.000000 -0.000000 -0.000000
			CHANNELS 3 Xrotation Yrotation Zrotation
			JOINT Spine
			{
				OFFSET 0.000000 10.199997 -0.299500
				CHANNELS 3 Xrotation Yrotation Zrotation
				JOINT Spine1
				{
					OFFSET 0.000000 11.900002 -1.516600
					CHANNELS 3 Xrotation Yrotation Zrotation
					JOINT Spine2
					{
						OFFSET 0.000000 13.600006 -2.842500
						CHANNELS 3 Xrotation Yrotation Zrotation
						JOINT Neck_virtual
						{
							OFFSET 0.000000 0.000000 0.000000
							CHANNELS 3 Xrotation Yrotation Zrotation
							JOINT Neck
							{
								OFFSET 0.000000 9.624100 -2.890100
								CHANNELS 3 Xrotation Yrotation Zrotation
								JOINT Head
								{
									OFFSET 0.000000 14.068802 -1.351900
									CHANNELS 3 Xrotation Yrotation Zrotation
									End Site
									{
										OFFSET 0 0 0
									}
								}
							}
						}
						JOINT LeftShoulder_virtual
						{
							OFFSET 0.000000 0.000000 0.000000
							CHANNELS 3 Xrotation Yrotation Zrotation
							JOINT LeftShoulder
							{
								OFFSET 15.263000 10.923401 -0.547700
								CHANNELS 3 Xrotation Yrotation Zrotation
								JOINT LeftArm
								{
									OFFSET 25.438599 -2.830597 -13.032500
									CHANNELS 3 Xrotation Yrotation Zrotation
									JOINT LeftForeArm
									{
										OFFSET 29.960503 0.000000 0.000000
										CHANNELS 3 Xrotation Yrotation Zrotation
										JOINT LeftHand
										{
											OFFSET 27.849251 0.000000 0.000000
											CHANNELS 3 Xrotation Yrotation Zrotation
											End Site
											{
												OFFSET 0 0 0
											}
										}
									}
								}
							}
						}
						JOINT RightShoulder_virtual
						{
							OFFSET 0.000000 0.000000 0.000000
							CHANNELS 3 Xrotation Yrotation Zrotation
							JOINT RightShoulder
							{
								OFFSET -15.263000 10.923401 -0.547700
								CHANNELS 3 Xrotation Yrotation Zrotation
								JOINT RightArm
								{
									OFFSET -25.438599 -2.830597 -13.032500
									CHANNELS 3 Xrotation Yrotation Zrotation
									JOINT RightForeArm
									{
										OFFSET -29.960503 0.000000 0.000000
										CHANNELS 3 Xrotation Yrotation Zrotation
										JOINT RightHand
										{
											OFFSET -27.849251 0.000000 0.000000
											CHANNELS 3 Xrotation Yrotation Zrotation
											End Site
											{
												OFFSET 0 0 0
											}
										}
									}
								}
							}
						}
					}
				}
			}
		}
	}
}
MOTION
Frames: 10
Frame Time: 0.03333333
-13.662024 67.987823 4.372601 0.000000 0.000000 0.000000 24.943733 -10.668389 -5.347208 -97.815344 -11.281376 -2.916821 37.227591 25.172024 -16.319637 18.045300 20.284569 12.135866 0.000000 0.000000 0.000000 24.362470 -9.111264 -6.652653 5.998219 -11.934585 16.046862 42.622955 -8.658384 0.441507 -21.509936 -6.212696 12.147047 0.000000 0.000000 0.000000 24.385818 -8.676460 -5.800104 -0.900173 -0.092004 -0.116431 6.793091 15.867071 -6.835545 7.441384 11.043052 -6.223050 0.000000 0.000000 0.000000 4.990027 8.526432 -2.910627 1.697839 -0.613728 -2.311152 0.000000 0.000000 0.000000 7.958194 8.848953 -2.712585 0.524429 -2.936145 -15.485968 -4.679298 19.030468 -38.599790 -12.108383 -17.811860 -3.894521 0.000000 0.000000 0.000000 3.284590 9.031121 -4.084010 8.380881 24.415727 -2.970534 -46.741495 46.327705 13.959545 144.035603 69.786174 -146.606377 0.000000 0.000000 0.000000 
-14.732217 68.468002 6.010815 0.000000 0.000000 0.000000 25.664564 -10.798371 -5.401802 -98.122901 -12.550064 -2.667647 40.244178 24.564543 -16.702953 18.400849 21.161196 11.131770 0.000000 0.000000 0.000000 25.273781 -9.347398 -6.466851 3.863915 -10.895610 14.843828 43.495881 -8.268937 0.346610 -17.685079 -4.653824 13.363251 0.000000 0.000000 0.000000 25.199626 -9.304942 -5.689005 -0.880225 -0.153936 -0.052403 7.502853 15.316841 -7.264365 7.563534 10.645967 -5.912343 0.000000 0.000000 0.000000 5.327380 8.273587 -2.660004 1.616767 -0.557828 -2.131536 0.000000 0.000000 0.000000 8.178124 8.525603 -2.542247 0.389516 -4.008652 -15.563406 -6.432950 16.410134 -38.171622 -12.406253 -18.810790 -3.879616 0.000000 0.000000 0.000000 3.395711 8.727320 -3.870865 8.249563 24.220983 -3.175712 -45.525451 44.777607 13.085921 143.534103 69.819737 -146.092173 0.000000 0.000000 0.000000 
-16.684456 69.305756 8.526913 0.000000 0.000000 0.000000 27.079530 -11.221691 -5.333315 -100.075577 -13.457769 -1.289408 46.488873 23.388912 -17.345100 16.735417 22.088591 10.615040 0.000000 0.000000 0.000000 26.875386 -9.929367 -5.960622 -2.141843 -9.644544 12.906643 46.616618 -8.472108 -0.067806 -10.494051 -2.670184 12.588828 0.000000 0.000000 0.000000 26.823594 -10.108287 -5.599890 -0.889836 -0.153209 -0.011291 8.457483 14.347693 -8.020370 7.681082 9.983198 -5.573727 0.000000 0.000000 0.000000 5.538067 7.674226 -2.398258 1.308131 -0.519166 -1.804046 0.000000 0.000000 0.000000 8.460620 7.900685 -2.409183 0.139390 -5.121141 -16.276047 -8.725071 13.666631 -37.186070 -13.177726 -20.457214 -4.050134 0.000000 0.000000 0.000000 3.516726 8.097836 -3.643345 8.103143 24.486276 -3.282115 -42.852590 42.293559 11.088905 144.575994 68.906377 -147.027977 0.000000 0.000000 0.000000 
-19.164131 70.381088 11.546497 0.000000 0.000000 0.000000 29.142952 -11.628232 -5.193364 -103.106446 -14.089625 1.051573 53.675359 21.629952 -17.929998 13.673783 22.197830 9.383294 0.000000 0.000000 0.000000 28.890915 -10.396636 -5.432332 -10.847090 -8.615226 10.570755 51.361223 -9.052663 -0.721411 -1.081640 -0.718736 10.049489 0.000000 0.000000 0.000000 29.064514 -10.670861 -5.591658 -0.901449 -0.109341 -0.030546 9.406259 13.125169 -8.883444 7.782399 9.247765 -5.350262 0.000000 0.000000 0.000000 5.615489 6.876523 -2.240129 0.860171 -0.503851 -1.406999 0.000000 0.000000 0.000000 8.737866 7.104332 -2.349267 -0.178538 -6.076330 -17.488766 -10.745766 11.612589 -35.778436 -14.354870 -23.191308 -4.561874 0.000000 0.000000 0.000000 3.679913 7.287721 -3.474365 7.979304 25.074996 -3.291543 -39.522876 39.259241 8.704175 146.674078 67.267384 -148.918983 0.000000 0.000000 0.000000 
-21.795883 71.497948 14.923012 0.000000 0.000000 0.000000 31.673616 -11.866117 -5.089585 -106.606986 -14.498977 4.171173 60.818928 19.505106 -18.365740 10.488881 21.730566 7.023782 0.000000 0.000000 0.000000 31.142674 -10.632126 -5.108001 -20.719533 -8.032749 7.920519 56.618778 -9.765381 -1.400381 6.989693 0.661138 6.640932 0.000000 0.000000 0.000000 31.673886 -10.852689 -5.661633 -0.906015 -0.082245 -0.075120 10.239137 11.787798 -9.695200 7.905424 8.548384 -5.306102 0.000000 0.000000 0.000000 5.628814 6.046052 -2.251796 0.379999 -0.517452 -0.981713 0.000000 0.000000 0.000000 8.947942 6.278985 -2.367873 -0.555972 -6.978844 -18.918126 -12.126816 10.409378 -34.000651 -15.885150 -27.541993 -5.624603 0.000000 0.000000 0.000000 3.915756 6.469883 -3.431449 7.873153 25.747990 -3.098061 -36.051084 36.091368 6.288063 149.073469 65.280844 -151.018174 0.000000 0.000000 0.000000 
-24.239609 72.593857 18.434965 0.000000 0.000000 0.000000 34.367586 -11.825795 -5.112348 -109.946539 -14.799253 7.712498 67.216732 17.293242 -18.445687 7.208629 21.087350 3.876180 0.000000 0.000000 0.000000 33.554342 -10.643161 -5.093019 -30.075864 -7.926862 4.829436 60.386652 -10.480131 -2.079343 11.402069 1.573938 3.700623 0.000000 0.000000 0.000000 34.472914 -10.709159 -5.752071 -0.895493 -0.070943 -0.106177 10.898787 10.497403 -10.429619 8.059793 8.004626 -5.436007 0.000000 0.000000 0.000000 5.621366 5.319371 -2.407185 -0.032671 -0.559131 -0.573167 0.000000 0.000000 0.000000 9.095755 5.586456 -2.473964 -0.925946 -7.831995 -20.194697 -12.773294 9.753191 -32.085708 -17.761564 -33.195857 -7.393273 0.000000 0.000000 0.000000 4.247769 5.803296 -3.488142 7.715862 26.405049 -2.598342 -32.735013 33.085573 3.868706 151.618793 63.162311 -153.180079 0.000000 0.000000 0.000000 
-26.399837 73.519402 22.173096 0.000000 0.000000 0.000000 37.123683 -11.671178 -5.229032 -112.375777 -15.238646 11.009064 72.102523 15.013237 -17.778404 3.292831 20.034922 0.038609 0.000000 0.000000 0.000000 36.139286 -10.411934 -5.304246 -37.770263 -8.041430 1.382016 61.391516 -10.944013 -2.993407 11.784790 2.473030 2.164439 0.000000 0.000000 0.000000 37.298707 -10.241470 -5.839749 -0.881636 -0.080219 -0.112168 11.493152 9.305260 -11.082407 8.217494 7.654881 -5.639078 0.000000 0.000000 0.000000 5.601810 4.793800 -2.653951 -0.333508 -0.629185 -0.196688 0.000000 0.000000 0.000000 9.158750 5.098916 -2.649066 -1.244439 -8.837284 -21.031401 -13.394098 9.184229 -30.253609 -19.799472 -38.849180 -9.623766 0.000000 0.000000 0.000000 4.627976 5.389089 -3.553159 7.423340 26.965233 -1.753574 -29.568784 30.245901 1.358283 154.173325 61.094068 -155.308721 0.000000 0.000000 0.000000 
-28.308048 74.241165 26.153666 0.000000 0.000000 0.000000 39.846603 -11.353226 -5.448260 -113.614589 -15.723493 13.974216 75.349622 12.630610 -16.472599 -0.638688 18.668160 -4.683349 0.000000 0.000000 0.000000 38.912079 -10.138533 -5.572147 -44.065973 -8.671525 -2.775058 60.343909 -11.083711 -3.755332 8.331681 3.305862 2.198637 0.000000 0.000000 0.000000 40.019069 -9.690385 -5.958297 -0.868747 -0.086280 -0.097863 12.120623 8.224081 -11.642649 8.353275 7.445559 -5.744698 0.000000 0.000000 0.000000 5.538205 4.506271 -2.919843 -0.514830 -0.732501 0.148584 0.000000 0.000000 0.000000 9.144807 4.839019 -2.841096 -1.481127 -10.057731 -21.267532 -14.664220 8.286457 -28.757361 -21.298273 -42.568888 -11.481509 0.000000 0.000000 0.000000 5.079241 5.236070 -3.563265 6.949498 27.353128 -0.636409 -26.452559 27.611678 -1.341942 156.783017 59.094182 -157.469561 0.000000 0.000000 0.000000 
-30.078308 74.927895 30.179756 0.000000 0.000000 0.000000 42.532264 -10.798032 -5.775841 -113.910862 -15.941547 17.134452 77.423316 10.213379 -15.145471 -3.842571 17.309388 -9.803557 0.000000 0.000000 0.000000 41.656118 -9.765581 -5.887965 -49.897657 -9.790388 -8.120204 58.541012 -10.970846 -3.906059 3.722300 3.482606 2.855895 0.000000 0.000000 0.000000 42.616562 -9.101461 -6.166547 -0.844857 -0.076699 -0.061086 12.802068 7.248571 -12.099398 8.466858 7.360419 -5.687045 0.000000 0.000000 0.000000 5.439749 4.421931 -3.110472 -0.581931 -0.845747 0.419174 0.000000 0.000000 0.000000 9.062489 4.785540 -2.979717 -1.587934 -11.455438 -20.824169 -16.725777 7.044646 -27.799608 -21.609407 -43.740398 -12.248029 0.000000 0.000000 0.000000 5.586516 5.290649 -3.494412 6.317048 27.662058 0.598871 -23.567445 25.178509 -4.046120 159.448048 57.069311 -159.692282 0.000000 0.000000 0.000000 
-31.787182 75.397255 34.161934 0.000000 0.000000 0.000000 45.055684 -10.021038 -6.208808 -113.862423 -15.893263 20.393620 79.079910 7.825748 -14.199219 -6.305954 16.021983 -14.400393 0.000000 0.000000 0.000000 44.280714 -9.115527 -6.277771 -56.308377 -10.949451 -14.543621 57.187436 -10.655175 -3.282178 0.599788 2.678250 2.813445 0.000000 0.000000 0.000000 45.070202 -8.516381 -6.433572 -0.813304 -0.055785 -0.018214 13.588329 6.359596 -12.355134 8.556770 7.359659 -5.495186 0.000000 0.000000 0.000000 5.342607 4.458150 -3.194471 -0.567864 -0.936564 0.580869 0.000000 0.000000 0.000000 8.901233 4.843551 -3.024112 -1.597662 -13.119400 -19.745392 -19.276829 5.548132 -27.141124 -20.923277 -43.620511 -12.142018 0.000000 0.000000 0.000000 6.071282 5.438789 -3.353295 5.599708 27.966715 1.815115 -21.179747 23.079489 -6.562725 161.933267 54.991458 -161.831770 0.000000 0.000000 0.000000 
